<?xml version="1.0" encoding="UTF-8" standalone="no"?>
<svg
   xmlns:dc="http://purl.org/dc/elements/1.1/"
   xmlns:cc="http://creativecommons.org/ns#"
   xmlns:rdf="http://www.w3.org/1999/02/22-rdf-syntax-ns#"
   xmlns:svg="http://www.w3.org/2000/svg"
   xmlns="http://www.w3.org/2000/svg"
   viewBox="0 0 99.999995 65"
   height="65"
   width="100"
   xml:space="preserve"
   version="1.1"
   id="svg4155"><metadata
     id="metadata4161"><rdf:RDF><cc:Work
         rdf:about=""><dc:format>image/svg+xml</dc:format><dc:type
           rdf:resource="http://purl.org/dc/dcmitype/StillImage" /><dc:title></dc:title></cc:Work></rdf:RDF></metadata><defs
     id="defs4159"><clipPath
       id="clipPath4189"
       clipPathUnits="userSpaceOnUse"><path
         id="path4191"
         d="m 0,613.28 859.89,0 L 859.89,0 0,0 0,613.28 Z" /></clipPath></defs><g
     transform="matrix(1.25,0,0,-1.25,-50.095807,97.589671)"
     id="g4163"><g
       transform="matrix(0.24159703,0,0,0.24159703,84.772502,39.97229)"
       id="g4165"><path
         id="path4167"
         style="fill:#3eb1c8;fill-opacity:1;fill-rule:nonzero;stroke:none"
         d="M 0,0 0,47.545 39.157,60.44 108.355,36.668 0,0 Z" /></g><g
       transform="matrix(0.24159703,0,0,0.24159703,101.49053,63.433199)"
       id="g4169"><path
         id="path4171"
         style="fill:#d8d2c4;fill-opacity:1;fill-rule:nonzero;stroke:none"
         d="M 0,0 -69.198,-23.773 -30.041,-36.668 39.157,-12.895 0,0 Z" /></g><g
       transform="matrix(0.24159703,0,0,0.24159703,94.232645,54.574439)"
       id="g4173"><path
         id="path4175"
         style="fill:#4f5858;fill-opacity:1;fill-rule:nonzero;stroke:none"
         d="m 0,0 69.198,23.773 0,-47.546 L 0,0 Z" /></g><g
       transform="matrix(0.24159703,0,0,0.24159703,110.9507,78.035372)"
       id="g4177"><path
         id="path4179"
         style="fill:#ffc72c;fill-opacity:1;fill-rule:nonzero;stroke:none"
         d="M 0,0 0,-47.545 -39.157,-60.44 -108.355,-36.668 0,0 Z" /></g><g
       transform="matrix(0.24159703,0,0,0.24159703,101.49053,63.433199)"
       id="g4181"><path
         id="path4183"
         style="fill:#ef3340;fill-opacity:1;fill-rule:nonzero;stroke:none"
         d="m 0,0 -69.198,-23.773 0,47.546 L 0,0 Z" /></g><g
       transform="matrix(0.24159703,0,0,0.24159703,-23.796735,-22.02982)"
       id="g4185"><g
         clip-path="url(#clipPath4189)"
         id="g4187"><g
           transform="translate(307.9628,241.3043)"
           id="g4193"><path
             id="path4195"
             style="fill:#4f5858;fill-opacity:1;fill-rule:nonzero;stroke:none"
             d="m 0,0 c -0.859,6.104 -6.705,10.745 -13.41,10.745 -12.12,0 -16.677,-10.315 -16.677,-21.059 0,-10.23 4.557,-20.546 16.677,-20.546 8.252,0 12.894,5.674 13.926,13.754 l 13.066,0 c -1.376,-15.301 -11.949,-25.1 -26.992,-25.1 -18.998,0 -30.173,14.183 -30.173,31.892 0,18.223 11.175,32.406 30.173,32.406 C 0.086,22.092 11.433,14.184 13.066,0 L 0,0 Z" /></g><g
           transform="translate(326.2687,245.001)"
           id="g4197"><path
             id="path4199"
             style="fill:#4f5858;fill-opacity:1;fill-rule:nonzero;stroke:none"
             d="m 0,0 11.605,0 0,-8.252 0.172,0 c 2.235,5.588 8.252,9.455 14.183,9.455 0.86,0 1.892,-0.172 2.665,-0.429 l 0,-11.347 c -1.117,0.257 -2.923,0.429 -4.384,0.429 -8.94,0 -12.035,-6.447 -12.035,-14.269 l 0,-20.029 L 0,-44.442 0,0 Z" /></g><g
           transform="translate(378.1595,208.5529)"
           id="g4201"><path
             id="path4203"
             style="fill:#4f5858;fill-opacity:1;fill-rule:nonzero;stroke:none"
             d="m 0,0 c 8.338,0 10.831,7.136 10.831,14.184 0,7.135 -2.493,14.27 -10.831,14.27 -8.252,0 -10.745,-7.135 -10.745,-14.27 C -10.745,7.136 -8.252,0 0,0 m 0,37.651 c 14.012,0 23.038,-9.283 23.038,-23.467 C 23.038,0.086 14.012,-9.197 0,-9.197 c -13.926,0 -22.952,9.283 -22.952,23.381 0,14.184 9.026,23.467 22.952,23.467" /></g><g
           transform="translate(415.3765,215.0009)"
           id="g4205"><path
             id="path4207"
             style="fill:#4f5858;fill-opacity:1;fill-rule:nonzero;stroke:none"
             d="m 0,0 c 0.086,-5.33 4.556,-7.479 9.37,-7.479 3.524,0 7.994,1.376 7.994,5.673 0,3.697 -5.071,4.986 -13.84,6.878 -7.048,1.547 -14.097,4.039 -14.097,11.862 0,11.347 9.8,14.269 19.341,14.269 9.714,0 18.654,-3.266 19.599,-14.183 l -11.605,0 c -0.343,4.728 -3.954,6.018 -8.338,6.018 -2.751,0 -6.791,-0.516 -6.791,-4.127 0,-4.384 6.877,-4.986 13.84,-6.619 7.135,-1.633 14.098,-4.212 14.098,-12.464 0,-11.692 -10.144,-15.473 -20.287,-15.473 -10.315,0 -20.373,3.867 -20.889,15.645 L 0,0 Z" /></g><g
           transform="translate(459.9438,215.0009)"
           id="g4209"><path
             id="path4211"
             style="fill:#4f5858;fill-opacity:1;fill-rule:nonzero;stroke:none"
             d="m 0,0 c 0.086,-5.33 4.556,-7.479 9.37,-7.479 3.524,0 7.994,1.376 7.994,5.673 0,3.697 -5.071,4.986 -13.84,6.878 -7.048,1.547 -14.097,4.039 -14.097,11.862 0,11.347 9.799,14.269 19.341,14.269 9.714,0 18.654,-3.266 19.599,-14.183 l -11.605,0 c -0.343,4.728 -3.954,6.018 -8.338,6.018 -2.751,0 -6.791,-0.516 -6.791,-4.127 0,-4.384 6.877,-4.986 13.84,-6.619 7.135,-1.633 14.098,-4.212 14.098,-12.464 0,-11.692 -10.144,-15.473 -20.287,-15.473 -10.315,0 -20.373,3.867 -20.889,15.645 L 0,0 Z" /></g><g
           transform="translate(493.4651,245.001)"
           id="g4213"><path
             id="path4215"
             style="fill:#4f5858;fill-opacity:1;fill-rule:nonzero;stroke:none"
             d="m 0,0 11.605,0 0,-8.252 0.172,0 c 2.235,5.588 8.252,9.455 14.183,9.455 0.86,0 1.892,-0.172 2.665,-0.429 l 0,-11.347 c -1.117,0.257 -2.923,0.429 -4.384,0.429 -8.94,0 -12.035,-6.447 -12.035,-14.269 l 0,-20.029 L 0,-44.442 0,0 Z" /></g><g
           transform="translate(555.2842,227.5509)"
           id="g4217"><path
             id="path4219"
             style="fill:#4f5858;fill-opacity:1;fill-rule:nonzero;stroke:none"
             d="M 0,0 C -1.118,6.189 -3.783,9.456 -9.714,9.456 -17.451,9.456 -19.686,3.439 -19.858,0 L 0,0 Z m -19.858,-7.736 c 0.344,-7.737 4.127,-11.262 10.918,-11.262 4.9,0 8.854,3.009 9.628,5.759 l 10.745,0 C 7.994,-23.725 0.688,-28.195 -9.37,-28.195 c -14.012,0 -22.694,9.628 -22.694,23.381 0,13.324 9.198,23.467 22.694,23.467 15.129,0 22.436,-12.722 21.576,-26.389 l -32.064,0 z" /></g><g
           transform="translate(574.1917,236.8351)"
           id="g4221"><path
             id="path4223"
             style="fill:#4f5858;fill-opacity:1;fill-rule:nonzero;stroke:none"
             d="m 0,0 -7.307,0 0,8.166 7.307,0 0,3.439 C 0,19.427 4.899,25.1 14.871,25.1 c 2.149,0 4.384,-0.258 6.447,-0.344 l 0,-9.112 c -1.461,0.172 -2.923,0.258 -4.47,0.258 -3.266,0 -4.642,-1.375 -4.642,-5.071 l 0,-2.665 8.424,0 0,-8.166 -8.424,0 0,-36.276 L 0,-36.276 0,0 Z" /></g></g></g></g></svg>